# xmcd CD database file
#
# Track frame offsets:
#	183
#	36230
#	59055
#	84198
#	130620
#	143885
#	156550
#	170208
#	230705
#	262160
#
# Disc length: 4361 seconds
#
# Revision: 5
# Processed by: cddbd v1.5.2PL0 Copyright (c) Steve Scherf et al.
# Submitted via: CDex 1.70beta2
#
DISCID=9611070a
DTITLE=Dizzy Gillespie - Top Jazz CD2 - Dizzy Gillespie
DYEAR=1989
DGENRE=Jazz
TTITLE0=Be Bop
TTITLE1=My Heart Belongs To Daddy
TTITLE2=Things To Come
TTITLE3=Sometime's I'm Happy
TTITLE4=Two Bass It
TTITLE5=My Man
TTITLE6=Minor Walk
TTITLE7=Emanon
TTITLE8='S Wonderful
TTITLE9=Manteca - St Thomas
EXTD=YEAR: 1989
EXTT0=
EXTT1=
EXTT2=
EXTT3=
EXTT4=
EXTT5=
EXTT6=
EXTT7=
EXTT8=
EXTT9=
PLAYORDER=
